# xmcd
#
# Track frame offsets: 
#        150
#        9647
#        24603
#        39230
#        53346
#        78618
#        91888
#        103482
#        116405
#        127662
#        141716
#        152239
#        165188
#        176038
#        186930
#        200430
#        214822
#        228590
#        243327
#        255342
#
# Disc length: 3576 seconds
#
# Revision: 0
# Processed by: cddbd v1.5.2PL0 Copyright (c) Steve Scherf et al.
# Submitted via: ExactAudioCopy v1.0b2
#
DISCID=090df614
DTITLE=Various Artist - Kings and Queens Of The Blues
DYEAR=2001
DGENRE=Blues
TTITLE0=Lowell Fulson - Every Day I Have The Blues
TTITLE1=Billie Holiday - Lover Man
TTITLE2=Big Bill Broonzy - Baby Please Don't Go
TTITLE3=Bessie Smith - Thinking Blues
TTITLE4=Howlin' Wolf - Little Red Rooster
TTITLE5=Ella Fitzgerald - Gulf Coast Blues
TTITLE6=Ray Charles - How Long, How Long Blues
TTITLE7=Billie Holiday - I Gotta Right Too Sing The Blues
TTITLE8=Big Joe Williams - Jinx Blues
TTITLE9=Mildred Bailey - Lover Come Back To Me
TTITLE10=Lightnin' Hopkins - I Wonder What's Wrong With Me
TTITLE11=Ella Fitzgerald - I Got It Bad (And That Ain't Good)
TTITLE12=T-Bone Walker - Lonesome Women Blues
TTITLE13=Irma Thomas - Set Me Free
TTITLE14=Leadbelly - Matchbox Blues
TTITLE15=Bessie Smith - I'm Down In The Dumps
TTITLE16=John Lee Hooker - I'm Gonna Kill That Woman
TTITLE17=Sarah Vaughan - Summertime
TTITLE18=Charles Brown - Trouble Blues
TTITLE19=Dinah Washington - All Or Nothing
EXTD=
EXTT0=
EXTT1=
EXTT2=
EXTT3=
EXTT4=
EXTT5=
EXTT6=
EXTT7=
EXTT8=
EXTT9=
EXTT10=
EXTT11=
EXTT12=
EXTT13=
EXTT14=
EXTT15=
EXTT16=
EXTT17=
EXTT18=
EXTT19=
PLAYORDER=
